<svg width="178" height="26" viewBox="0 0 178 26" fill="none" xmlns="http://www.w3.org/2000/svg">
<g id="Group 252">
<rect id="Rectangle 127" x="51" y="2" width="23" height="2" transform="rotate(90 51 2)" fill="#E6E6E6"/>
<rect id="Rectangle 128" x="130" y="2" width="23" height="2" transform="rotate(90 130 2)" fill="#E6E6E6"/>
<path id="Union" fill-rule="evenodd" clip-rule="evenodd" d="M156.328 2H154V3.40191H157.435L159.635 15.4881H161.01V15.6686C161.01 16.2915 161.564 16.7201 162.149 16.7201H173.188C173.782 16.7201 174.328 16.2835 174.328 15.6686V15.3181H161.088L159.56 6.90668H175.73V6.55621C175.73 5.91642 175.125 5.50477 174.522 5.50477H159.306L159.089 4.31147C158.995 3.78454 158.532 3.40191 158 3.40191H157.505V3.05143C157.505 2.42255 156.927 2 156.328 2ZM177.245 6.90668H175.762L174.258 15.2014H175.742L177.245 6.90668ZM164.15 18.122C162.805 18.122 161.711 19.216 161.711 20.561C161.711 21.9059 162.805 23 164.15 23C165.494 23 166.589 21.9059 166.589 20.561C166.589 19.216 165.494 18.122 164.15 18.122ZM170.673 18.122C169.328 18.122 168.234 19.216 168.234 20.561C168.234 21.9059 169.328 23 170.673 23C172.018 23 173.112 21.9059 173.112 20.561C173.112 19.216 172.018 18.122 170.673 18.122ZM163.172 20.561C163.172 20.0209 163.609 19.5834 164.15 19.5834C164.69 19.5834 165.127 20.0209 165.127 20.561C165.127 21.1011 164.69 21.5386 164.15 21.5386C163.609 21.5386 163.172 21.1011 163.172 20.561ZM169.695 20.561C169.695 20.0209 170.133 19.5834 170.673 19.5834C171.213 19.5834 171.65 20.0209 171.65 20.561C171.65 21.1011 171.213 21.5386 170.673 21.5386C170.133 21.5386 169.695 21.1011 169.695 20.561Z" fill="#6D6D6D"/>
<g id="Group 217">
<path id="Union_2" fill-rule="evenodd" clip-rule="evenodd" d="M17.5294 3.05219C15.6265 2.80772 13.7817 3.42984 12.4421 4.75611L11.3082 5.8813L11.6539 6.22703C12.1811 6.75427 13.0298 6.74986 13.559 6.23014L13.7323 6.05683C14.6607 5.13417 15.9487 4.69617 17.2818 4.87173L17.2833 4.87192C19.1487 5.11191 20.6662 6.62852 20.9174 8.4904C21.0984 9.82905 20.66 11.1235 19.7366 12.0581L11.3027 20.5428L12.6108 21.8378L21.0443 13.3535L21.0458 13.352C22.3715 12.0064 22.9937 10.1553 22.7426 8.24579L22.7424 8.2446C22.3839 5.56898 20.2119 3.40409 17.5307 3.05236L17.5294 3.05219Z" fill="#808080"/>
<path id="Union_3" fill-rule="evenodd" clip-rule="evenodd" d="M5.26743 3.05219C7.17035 2.80772 9.01519 3.42984 10.3547 4.75611L11.4887 5.8813L11.143 6.22703C10.6157 6.75427 9.76705 6.74986 9.23787 6.23014L9.06457 6.05683C8.13614 5.13417 6.84818 4.69617 5.51503 4.87173L5.51359 4.87192C3.64817 5.11191 2.13069 6.62852 1.87952 8.4904C1.69848 9.82905 2.13686 11.1235 3.06026 12.0581L11.4941 20.5428L10.1861 21.8378L1.75262 13.3535L1.7511 13.352C0.425388 12.0064 -0.196788 10.1553 0.0542946 8.24579L0.0544548 8.2446C0.412974 5.56898 2.58502 3.40409 5.26614 3.05236L5.26743 3.05219Z" fill="#808080"/>
</g>
<g id="Group 188">
<g id="Group 186">
<path id="Vector" d="M86.3174 18.2325L93.7334 10.8165C93.2541 10.3372 92.4698 10.3372 91.9905 10.8165L85.4547 17.3523L86.3261 18.2238L86.3174 18.2325Z" fill="#6D6D6D"/>
<path id="Vector_2" d="M94.9619 14.52V10.8164H93.7245V13.2826C93.7245 13.9623 94.2735 14.52 94.9619 14.52Z" fill="#6D6D6D"/>
<path id="Vector_3" d="M94.9621 14.5195H101.141V15.757H94.9621V14.5195Z" fill="#6D6D6D"/>
<path id="Vector_4" d="M94.9621 20.6992H101.141V21.9367H94.9621V20.6992Z" fill="#6D6D6D"/>
<path id="Vector_5" d="M93.7333 25.6411H94.9707V21.9375C94.291 21.9375 93.7333 22.4865 93.7333 23.175V25.6411Z" fill="#6D6D6D"/>
<path id="Vector_6" d="M86.3173 18.2344L93.7246 25.6417C93.2453 26.121 92.461 26.121 91.9817 25.6417L85.4459 19.1058L86.3173 18.2344Z" fill="#6D6D6D"/>
</g>
<g id="Group 187">
<path id="Vector_7" d="M89.8115 7.77547L82.3955 0.359471C82.8748 -0.119824 83.6591 -0.119824 84.1384 0.359471L90.6742 6.89531L89.8028 7.76676L89.8115 7.77547Z" fill="#6D6D6D"/>
<path id="Vector_8" d="M81.167 4.06302V0.359375H82.4044V2.82557C82.4044 3.50529 81.8554 4.06302 81.167 4.06302Z" fill="#6D6D6D"/>
<path id="Vector_9" d="M81.1668 4.0625H74.9883V5.29995H81.1668V4.0625Z" fill="#6D6D6D"/>
<path id="Vector_10" d="M81.1668 10.2422H74.9883V11.4796H81.1668V10.2422Z" fill="#6D6D6D"/>
<path id="Vector_11" d="M82.3957 15.1841H81.1582V11.4805C81.8379 11.4805 82.3957 12.0295 82.3957 12.7179V15.1841Z" fill="#6D6D6D"/>
<path id="Vector_12" d="M89.8116 7.77734L82.4043 15.1846C82.8836 15.6639 83.6679 15.6639 84.1472 15.1846L90.683 8.64879L89.8116 7.77734Z" fill="#6D6D6D"/>
</g>
</g>
</g>
</svg>
