<svg width="24" height="21" viewBox="0 0 24 21" fill="none" xmlns="http://www.w3.org/2000/svg">
<path id="Union" fill-rule="evenodd" clip-rule="evenodd" d="M2.32828 0H0V1.40191H3.43522L5.63529 13.4881H7.00955V13.6686C7.00955 14.2915 7.56383 14.7201 8.14895 14.7201H19.1883C19.7823 14.7201 20.3277 14.2835 20.3277 13.6686V13.3181H7.08787L5.56042 4.90668H21.7296V4.55621C21.7296 3.91642 21.125 3.50477 20.522 3.50477H5.30584L5.08915 2.31147C4.99461 1.78454 4.53236 1.40191 3.99984 1.40191H3.50477V1.05143C3.50477 0.42255 2.92694 0 2.32828 0ZM23.2453 4.90668H21.7618L20.2585 13.2014H21.742L23.2453 4.90668ZM10.1495 16.122C8.80459 16.122 7.7105 17.216 7.7105 18.561C7.7105 19.9059 8.80459 21 10.1495 21C11.4945 21 12.5885 19.9059 12.5885 18.561C12.5885 17.216 11.4945 16.122 10.1495 16.122ZM16.6727 16.122C15.3278 16.122 14.2337 17.216 14.2337 18.561C14.2337 19.9059 15.3278 21 16.6727 21C18.0177 21 19.1117 19.9059 19.1117 18.561C19.1117 17.216 18.0177 16.122 16.6727 16.122ZM9.1719 18.561C9.1719 18.0209 9.60942 17.5834 10.1495 17.5834C10.6896 17.5834 11.1271 18.0209 11.1271 18.561C11.1271 19.1011 10.6896 19.5386 10.1495 19.5386C9.60942 19.5386 9.1719 19.1011 9.1719 18.561ZM15.6951 18.561C15.6951 18.0209 16.1326 17.5834 16.6727 17.5834C17.2128 17.5834 17.6503 18.0209 17.6503 18.561C17.6503 19.1011 17.2128 19.5386 16.6727 19.5386C16.1326 19.5386 15.6951 19.1011 15.6951 18.561Z" fill="#27BDBE"/>
</svg>
